# xmcd
#
# Track frame offsets:
#	150
#	16439
#	30917
#	48728
#	62318
#	79248
#	96884
#	114896
#
# Disc length: 1783 seconds
# Revision: 0
# Processed by: cddbd v1.5.2PL0 Copyright (c) Steve Scherf et al.
# Submitted via: dBpowerAMP V12.0
#
DISCID=5606f508
DTITLE=Mitch Rossell - Raised By The Radio
DYEAR=2017
DGENRE=Country
TTITLE0=All About Me
TTITLE1=Sent From Heaven
TTITLE2=Any Girl
TTITLE3=Not Enough
TTITLE4=Why I Drink
TTITLE5=Raised By The Radio
TTITLE6=Mine Was A Backroad
TTITLE7=The Rain
EXTD=
EXTT0=
EXTT1=
EXTT2=
EXTT3=
EXTT4=
EXTT5=
EXTT6=
EXTT7=
PLAYORDER=
